<svg
        class="wave-svg"
        viewBox="0 0 400 116"
        xmlns="http://www.w3.org/2000/svg"
        >
        <g
        
        stroke="#f06292"
        stroke-width="10px"
        fill="transparent"
        >
        <path d="m2,30 l30,-25 l30,25 l30,-25 l30,25 l30,-25 l30,25 l30,-25 l30,25 l30,-25 l30,25 l30,-25 l30,25"></path>
        <path d="m2,70 l30,-25 l30,25 l30,-25 l30,25 l30,-25 l30,25 l30,-25 l30,25 l30,-25 l30,25 l30,-25 l30,25"></path>
        <path d="m2,110 l30,-25 l30,25 l30,-25 l30,25 l30,-25 l30,25 l30,-25 l30,25 l30,-25 l30,25 l30,-25 l30,25"></path>
        </g>
</svg>

