<svg
        class="dotted-svg"
        viewBox="0 0 360 120"
        xmlns="http://www.w3.org/2000/svg"
        >
        <g
        
        stroke="black"
        stroke-width="5px"
        fill="transparent"
        >
        <path d="m0,30 l30,-25 l30,25 l30,-25 l30,25 l30,-25 l30,25 l30,-25 l30,25 l30,-25 l30,25 l30,-25 l30,25"></path>
        <path d="m0,70 l30,-25 l30,25 l30,-25 l30,25 l30,-25 l30,25 l30,-25 l30,25 l30,-25 l30,25 l30,-25 l30,25"></path>
        <path d="m0,110 l30,-25 l30,25 l30,-25 l30,25 l30,-25 l30,25 l30,-25 l30,25 l30,-25 l30,25 l30,-25 l30,25"></path>
        <!-- <po "0x,10y 20,10 10,0" /> -->
        </g>
</svg>